# xmcd
#
# Track frame offsets:
#	150
#	13540
#	29711
#	46047
#	63533
#	80138
#	96990
#	114855
#	129415
#	147630
#	166104
#	183981
#	199001
#	213980
#	228418
#	243754
#	259240
#	272827
#	286583
#
# Disc length: 4027 seconds
# Revision: 0
# Processed by: cddbd v1.5.2PL0 Copyright (c) Steve Scherf et al.
# Submitted via: dBpowerAMP V12.0
#
DISCID=0c0fb913
DTITLE=Various Artist - Country Radio November 2011
DYEAR=2011
DGENRE=Country
TTITLE0=Deric Ruttan - She's Like A Song
TTITLE1=Jason McCoy - I'd Still Have Everything
TTITLE2=Luke Byran - I Don't Want This Night To End
TTITLE3=Doc Walker - Do It Right
TTITLE4=Chad Brownlee - Love Me  Or Leave Me
TTITLE5=Scotty McCreery - The Trouble With Girls
TTITLE6=Dierks Bentley - Home
TTITLE7=Jane Dear Girls The - Merry Go Round
TTITLE8=George Canyon - When Love Is All You Got
TTITLE9=Leann Rimes - Give
TTITLE10=Kal Hourd - When Pink Is Just A Color Again
TTITLE11=Craig Morgan - This Ole Boy
TTITLE12=Hey Romeo - Hello
TTITLE13=Jetty ROad - I'm A Dreamer
TTITLE14=Jaydee Bixby - Always Love My Country (Radio Edit)
TTITLE15=Ashley Gearing - Me My Heart and I
TTITLE16=Keats - Handsome
TTITLE17=Bryce Pallister - Down Dusty Roads
TTITLE18=JT Hodges - Hunt You Down (Explicit Lyrics)
EXTD=
EXTT0=
EXTT1=
EXTT2=
EXTT3=
EXTT4=
EXTT5=
EXTT6=
EXTT7=
EXTT8=
EXTT9=
EXTT10=
EXTT11=
EXTT12=
EXTT13=
EXTT14=
EXTT15=
EXTT16=
EXTT17=
EXTT18=
PLAYORDER=
